<svg xmlns="http://www.w3.org/2000/svg" version="1.1" xmlns:xlink="http://www.w3.org/1999/xlink" xmlns:svgjs="http://svgjs.com/svgjs" width="1440" height="570" preserveAspectRatio="none" viewBox="0 0 1440 570"><g mask="url(&quot;#SvgjsMask1279&quot;)" fill="none"><rect width="1440" height="570" x="0" y="0" fill="url(#SvgjsLinearGradient1280)"></rect><path d="M 0,54 C 96,83.2 288,184.6 480,200 C 672,215.4 768,117.8 960,131 C 1152,144.2 1344,239 1440,266L1440 570L0 570z" fill="rgba(232, 179, 11, 1)"></path><path d="M 0,352 C 96,378.2 288,496.6 480,483 C 672,469.4 768,270.4 960,284 C 1152,297.6 1344,497.6 1440,551L1440 570L0 570z" fill="rgba(255, 255, 255, 1)"></path></g><defs><mask id="SvgjsMask1279"><rect width="1440" height="570" fill="#ffffff"></rect></mask><linearGradient x1="15.1%" y1="-38.16%" x2="84.9%" y2="138.16%" gradientUnits="userSpaceOnUse" id="SvgjsLinearGradient1280"><stop stop-color="rgba(255, 255, 255, 1)" offset="0.89"></stop><stop stop-color="rgba(255, 255, 255, 1)" offset="1"></stop></linearGradient></defs></svg>